<svg width="359" height="445" fill="none" xmlns="http://www.w3.org/2000/svg"><g clip-path="url(#a)"><path d="m308.112 41.819-435.862 74.118-3.319-22.125c-4.425-24.337 12.169-46.462 36.506-50.887l349.575-58.631C279.35-20.131 301.475-3.538 305.9 20.8l2.212 21.019ZM270.5 403.562h-354c-24.337 0-44.25-19.912-44.25-44.25V115.937h442.5v243.375c0 24.338-19.913 44.25-44.25 44.25Z" fill="#4C1785"/><path d="M35.975 20.8 90.18 79.43l44.25-7.744-55.312-58.63L35.975 20.8ZM-51.42 35.18 2.787 93.812l44.25-7.743-55.312-57.525-43.144 6.637ZM123.37 6.42l54.206 57.525 43.144-6.638-54.207-58.631-43.143 7.744Zm86.287-14.382 55.313 57.525 43.143-7.743-54.206-57.525-44.25 7.743ZM-89.031 60.625c-9.165 0-16.594 7.43-16.594 16.594 0 9.164 7.43 16.593 16.594 16.593 9.164 0 16.594-7.429 16.594-16.593 0-9.165-7.43-16.594-16.594-16.594ZM270.5 115.937l-44.25 66.375h44.25l44.25-66.375H270.5Zm-88.5 0-44.25 66.375H182l44.25-66.375H182Zm-88.5 0-44.25 66.375H93.5l44.25-66.375H93.5Zm-88.5 0-44.25 66.375H5l44.25-66.375H5Zm-88.5 0-44.25 66.375h44.25l44.25-66.375H-83.5Z" fill="#390B67"/></g><defs><clipPath id="a"><path fill="#fff" transform="translate(-172 -50)" d="M0 0h531v531H0z"/></clipPath></defs></svg>